<svg width="40" height="40" viewBox="0 0 40 40" fill="none" xmlns="http://www.w3.org/2000/svg">
<path fill-rule="evenodd" clip-rule="evenodd" d="M20 40C31.0457 40 40 31.0457 40 20C40 8.95431 31.0457 0 20 0C8.9543 0 0 8.95431 0 20C0 31.0457 8.9543 40 20 40ZM18.562 33H12.748V8.792H18.562C24.886 8.792 27.028 9.812 27.028 17.054V25.69C27.028 30.28 25.668 33 18.562 33ZM21.384 16.204C21.384 12.974 21.248 12.26 18.392 12.26V29.532C21.146 29.532 21.384 28.478 21.384 26.166V16.204Z" fill="#293036"/>
</svg>
